<svg width="41" height="40" viewBox="0 0 41 40" fill="none" xmlns="http://www.w3.org/2000/svg">
<mask id="mask0_99679_17352" style="mask-type:alpha" maskUnits="userSpaceOnUse" x="8" y="8" width="25" height="24">
<rect x="8.5" y="8" width="24" height="24" fill="#D9D9D9"/>
</mask>
<g mask="url(#mask0_99679_17352)">
<path d="M20.5 30C19.1167 30 17.8167 29.7375 16.6 29.2125C15.3833 28.6875 14.325 27.975 13.425 27.075C12.525 26.175 11.8125 25.1167 11.2875 23.9C10.7625 22.6833 10.5 21.3833 10.5 20C10.5 18.6167 10.7625 17.3167 11.2875 16.1C11.8125 14.8833 12.525 13.825 13.425 12.925C14.325 12.025 15.3833 11.3125 16.6 10.7875C17.8167 10.2625 19.1167 10 20.5 10C21.25 10 21.9792 10.0792 22.6875 10.2375C23.3958 10.3958 24.0667 10.625 24.7 10.925C24.6333 11.0917 24.5833 11.2667 24.55 11.45C24.5167 11.6333 24.5 11.8167 24.5 12C24.5 12.2333 24.525 12.4542 24.575 12.6625C24.625 12.8708 24.6917 13.0667 24.775 13.25C24.1583 12.8667 23.4917 12.5625 22.775 12.3375C22.0583 12.1125 21.3 12 20.5 12C18.2833 12 16.3958 12.7792 14.8375 14.3375C13.2792 15.8958 12.5 17.7833 12.5 20C12.5 22.2167 13.2792 24.1042 14.8375 25.6625C16.3958 27.2208 18.2833 28 20.5 28C22.7167 28 24.6042 27.2208 26.1625 25.6625C27.7208 24.1042 28.5 22.2167 28.5 20C28.5 19.3333 28.4208 18.6917 28.2625 18.075C28.1042 17.4583 27.8833 16.875 27.6 16.325C27.8667 16.5417 28.1583 16.7083 28.475 16.825C28.7917 16.9417 29.1333 17 29.5 17C29.5833 17 29.6708 16.9958 29.7625 16.9875C29.8542 16.9792 29.9417 16.9667 30.025 16.95C30.175 17.4333 30.2917 17.9292 30.375 18.4375C30.4583 18.9458 30.5 19.4667 30.5 20C30.5 21.3833 30.2375 22.6833 29.7125 23.9C29.1875 25.1167 28.475 26.175 27.575 27.075C26.675 27.975 25.6167 28.6875 24.4 29.2125C23.1833 29.7375 21.8833 30 20.5 30ZM24 19C24.4333 19 24.7917 18.8583 25.075 18.575C25.3583 18.2917 25.5 17.9333 25.5 17.5C25.5 17.0667 25.3583 16.7083 25.075 16.425C24.7917 16.1417 24.4333 16 24 16C23.5667 16 23.2083 16.1417 22.925 16.425C22.6417 16.7083 22.5 17.0667 22.5 17.5C22.5 17.9333 22.6417 18.2917 22.925 18.575C23.2083 18.8583 23.5667 19 24 19ZM17 19C17.4333 19 17.7917 18.8583 18.075 18.575C18.3583 18.2917 18.5 17.9333 18.5 17.5C18.5 17.0667 18.3583 16.7083 18.075 16.425C17.7917 16.1417 17.4333 16 17 16C16.5667 16 16.2083 16.1417 15.925 16.425C15.6417 16.7083 15.5 17.0667 15.5 17.5C15.5 17.9333 15.6417 18.2917 15.925 18.575C16.2083 18.8583 16.5667 19 17 19ZM20.5 25.5C21.6833 25.5 22.7292 25.175 23.6375 24.525C24.5458 23.875 25.2 23.0333 25.6 22H15.4C15.8 23.0333 16.4542 23.875 17.3625 24.525C18.2708 25.175 19.3167 25.5 20.5 25.5ZM28.5 13H27.5C27.2167 13 26.9792 12.9042 26.7875 12.7125C26.5958 12.5208 26.5 12.2833 26.5 12C26.5 11.7167 26.5958 11.4792 26.7875 11.2875C26.9792 11.0958 27.2167 11 27.5 11H28.5V10C28.5 9.71667 28.5958 9.47917 28.7875 9.2875C28.9792 9.09583 29.2167 9 29.5 9C29.7833 9 30.0208 9.09583 30.2125 9.2875C30.4042 9.47917 30.5 9.71667 30.5 10V11H31.5C31.7833 11 32.0208 11.0958 32.2125 11.2875C32.4042 11.4792 32.5 11.7167 32.5 12C32.5 12.2833 32.4042 12.5208 32.2125 12.7125C32.0208 12.9042 31.7833 13 31.5 13H30.5V14C30.5 14.2833 30.4042 14.5208 30.2125 14.7125C30.0208 14.9042 29.7833 15 29.5 15C29.2167 15 28.9792 14.9042 28.7875 14.7125C28.5958 14.5208 28.5 14.2833 28.5 14V13Z" fill="black"/>
</g>
</svg>
