<svg width="19" height="19" viewBox="0 0 19 19" fill="none" xmlns="http://www.w3.org/2000/svg">
<path d="M2.55005 17H3.95005L12.575 8.375L11.175 6.975L2.55005 15.6V17ZM16.85 6.925L12.6 2.725L14 1.325C14.3834 0.941667 14.8544 0.75 15.413 0.75C15.971 0.75 16.4417 0.941667 16.825 1.325L18.225 2.725C18.6084 3.10833 18.8084 3.571 18.825 4.113C18.8417 4.65433 18.6584 5.11667 18.275 5.5L16.85 6.925ZM1.55005 19C1.26672 19 1.02938 18.904 0.838049 18.712C0.646049 18.5207 0.550049 18.2833 0.550049 18V15.175C0.550049 15.0417 0.575049 14.9127 0.625049 14.788C0.675049 14.6627 0.750049 14.55 0.850049 14.45L11.15 4.15L15.4 8.4L5.10005 18.7C5.00005 18.8 4.88772 18.875 4.76305 18.925C4.63772 18.975 4.50838 19 4.37505 19H1.55005Z" fill="#1C1B1F"/>
</svg>
