<svg width="70" height="70" viewBox="0 0 70 70" fill="none" xmlns="http://www.w3.org/2000/svg">
<g clip-path="url(#clip0_98928_15100)">
<path d="M64.8308 0H32.6846C29.7769 0 27.4615 2.31538 27.4615 5.16923V31.7692H64.7769C67.6308 31.7692 69.9462 29.4538 69.9462 26.6V5.16923C70 2.31538 67.6846 0 64.8308 0Z" fill="#92C83E"/>
<path d="M38.8231 18.4154C40.2208 18.4154 41.3539 17.2823 41.3539 15.8846C41.3539 14.4869 40.2208 13.3538 38.8231 13.3538C37.4254 13.3538 36.2924 14.4869 36.2924 15.8846C36.2924 17.2823 37.4254 18.4154 38.8231 18.4154Z" fill="white"/>
<path d="M48.7307 18.4154C50.1284 18.4154 51.2615 17.2823 51.2615 15.8846C51.2615 14.4869 50.1284 13.3538 48.7307 13.3538C47.333 13.3538 46.2 14.4869 46.2 15.8846C46.2 17.2823 47.333 18.4154 48.7307 18.4154Z" fill="white"/>
<path d="M58.6384 18.4154C60.0361 18.4154 61.1692 17.2823 61.1692 15.8846C61.1692 14.4869 60.0361 13.3538 58.6384 13.3538C57.2407 13.3538 56.1077 14.4869 56.1077 15.8846C56.1077 17.2823 57.2407 18.4154 58.6384 18.4154Z" fill="white"/>
<path d="M5.33073 37.9077C2.47688 37.9077 0.161499 40.223 0.161499 43.0769V64.7769C0.161499 67.6307 2.47688 69.9461 5.33073 69.9461H37.4769C40.3307 69.9461 42.6461 67.6307 42.6461 64.7769V37.8538H5.33073V37.9077Z" fill="#FBB03B"/>
<path d="M11.4692 56.4846C12.8669 56.4846 14 55.3516 14 53.9539C14 52.5562 12.8669 51.4231 11.4692 51.4231C10.0715 51.4231 8.93848 52.5562 8.93848 53.9539C8.93848 55.3516 10.0715 56.4846 11.4692 56.4846Z" fill="white"/>
<path d="M21.377 56.4846C22.7747 56.4846 23.9077 55.3516 23.9077 53.9539C23.9077 52.5562 22.7747 51.4231 21.377 51.4231C19.9793 51.4231 18.8462 52.5562 18.8462 53.9539C18.8462 55.3516 19.9793 56.4846 21.377 56.4846Z" fill="white"/>
<path d="M31.2846 56.4846C32.6823 56.4846 33.8153 55.3516 33.8153 53.9539C33.8153 52.5562 32.6823 51.4231 31.2846 51.4231C29.8868 51.4231 28.7538 52.5562 28.7538 53.9539C28.7538 55.3516 29.8868 56.4846 31.2846 56.4846Z" fill="white"/>
<path d="M21.3769 21.1077V31.8231H10.7154C4.7923 31.8231 0 27.0308 0 21.1077C0 15.1846 4.7923 10.3923 10.7154 10.3923C16.6385 10.3923 21.3769 15.2385 21.3769 21.1077Z" fill="#ED1E79"/>
<path d="M48.623 48.6231V37.9077H59.3384C65.2615 37.9077 70.0538 42.7 70.0538 48.6231C70.0538 54.5462 65.2615 59.3385 59.3384 59.3385C53.4154 59.3385 48.623 54.4923 48.623 48.6231Z" fill="#3FA9F5"/>
</g>
<defs>
<clipPath id="clip0_98928_15100">
<rect width="70" height="70" fill="white"/>
</clipPath>
</defs>
</svg>
